<?xml version="1.0" encoding="UTF-8" standalone="no"?>
<!-- Generated by IcoMoon.io -->

<svg
   xmlns:dc="http://purl.org/dc/elements/1.1/"
   xmlns:cc="http://creativecommons.org/ns#"
   xmlns:rdf="http://www.w3.org/1999/02/22-rdf-syntax-ns#"
   xmlns:svg="http://www.w3.org/2000/svg"
   xmlns="http://www.w3.org/2000/svg"
   xmlns:sodipodi="http://sodipodi.sourceforge.net/DTD/sodipodi-0.dtd"
   xmlns:inkscape="http://www.inkscape.org/namespaces/inkscape"
   version="1.1"
   width="20"
   height="20"
   viewBox="0 0 20 20"
   id="svg2"
   inkscape:version="0.91 r13725"
   sodipodi:docname="lnr-enter.svg">
  <metadata
     id="metadata12">
    <rdf:RDF>
      <cc:Work
         rdf:about="">
        <dc:format>image/svg+xml</dc:format>
        <dc:type
           rdf:resource="http://purl.org/dc/dcmitype/StillImage" />
      </cc:Work>
    </rdf:RDF>
  </metadata>
  <defs
     id="defs10" />
  <sodipodi:namedview
     pagecolor="#ffffff"
     bordercolor="#666666"
     borderopacity="1"
     objecttolerance="10"
     gridtolerance="10"
     guidetolerance="10"
     inkscape:pageopacity="0"
     inkscape:pageshadow="2"
     inkscape:window-width="1920"
     inkscape:window-height="1017"
     id="namedview8"
     showgrid="false"
     inkscape:zoom="11.8"
     inkscape:cx="31.966196"
     inkscape:cy="2.9281066"
     inkscape:window-x="-8"
     inkscape:window-y="-8"
     inkscape:window-maximized="1"
     inkscape:current-layer="svg2" />
  <path
     fill="#000000"
     d="M17.5 2h-9c-0.827 0-1.5 0.673-1.5 1.5v3c0 0.276 0.224 0.5 0.5 0.5s0.5-0.224 0.5-0.5v-3c0-0.276 0.224-0.5 0.5-0.5h7.564l-3.842 1.647c-0.685 0.294-1.222 1.108-1.222 1.853v9.5h-2.5c-0.276 0-0.5-0.224-0.5-0.5v-3c0-0.276-0.224-0.5-0.5-0.5s-0.5 0.224-0.5 0.5v3c0 0.827 0.673 1.5 1.5 1.5h2.5v1.5c0 0.433 0.18 0.801 0.495 1.008 0.174 0.114 0.376 0.172 0.589 0.172 0.173 0 0.354-0.038 0.532-0.114l5.162-2.212c0.685-0.294 1.222-1.108 1.222-1.854v-12c0-0.827-0.673-1.5-1.5-1.5zM18 15.5c0 0.351-0.294 0.796-0.616 0.934l-5.162 2.212c-0.096 0.041-0.159 0.038-0.177 0.027s-0.045-0.069-0.045-0.173v-12c0-0.351 0.294-0.796 0.616-0.934l5.333-2.286c0.033 0.066 0.051 0.141 0.051 0.22v12z"
     id="path4"
     style="fill:#962d3e;fill-opacity:1" />
  <path
     fill="#000000"
     d="M8.354 9.146l-3-3c-0.195-0.195-0.512-0.195-0.707 0s-0.195 0.512 0 0.707l2.146 2.146h-6.293c-0.276 0-0.5 0.224-0.5 0.5s0.224 0.5 0.5 0.5h6.293l-2.146 2.146c-0.195 0.195-0.195 0.512 0 0.707 0.098 0.098 0.226 0.146 0.354 0.146s0.256-0.049 0.354-0.146l3-3c0.195-0.195 0.195-0.512 0-0.707z"
     id="path6"
     style="fill:#962d3e;fill-opacity:1" />
</svg>
